<svg width="164" height="37" viewBox="0 0 164 37" fill="none" xmlns="http://www.w3.org/2000/svg">
<path fill-rule="evenodd" clip-rule="evenodd" d="M38.2595 3.45322C37.3194 2.98107 36.1561 2.84192 34.8561 3.0784C34.0546 3.22479 33.2 3.51435 32.3138 3.95594C31.463 4.38144 30.6484 4.91472 29.8766 5.53327L33.0075 7.10657C33.7793 6.48803 34.5939 5.95474 35.4438 5.53005C36.33 5.08766 37.1836 4.79809 37.9861 4.6517C39.2861 4.41522 40.4494 4.55437 41.3895 5.02653L38.2595 3.45322Z" fill="#F0A72E"/>
<mask id="mask0" mask-type="alpha" maskUnits="userSpaceOnUse" x="0" y="1" width="31" height="34">
<path fill-rule="evenodd" clip-rule="evenodd" d="M0 1H30.3026V34.6256H0V1Z" fill="white"/>
</mask>
<g mask="url(#mask0)">
<path fill-rule="evenodd" clip-rule="evenodd" d="M27.1726 1.56365C26.0865 1.0175 24.7409 0.857433 23.2382 1.13091C22.3102 1.29982 21.3217 1.63443 20.2961 2.1468C18.5898 2.99941 16.9876 4.23811 15.5983 5.70282C13.0421 8.39819 11.2065 11.8585 10.762 15.0799C9.99487 15.2295 9.17285 15.5135 8.32945 15.9349C6.85838 16.6693 5.47751 17.7359 4.28075 18.9971C1.71614 21.6973 -0.00971918 25.2879 -0.000420372 28.4136C0.00794856 30.6931 0.9369 32.2978 2.4368 33.0515L5.56678 34.6256C4.06595 33.8711 3.137 32.2664 3.12956 29.9869C3.11933 26.8612 4.84612 23.2706 7.4098 20.5704C8.60749 19.3092 9.98743 18.2426 11.4594 17.5082C12.3019 17.0868 13.1248 16.8028 13.8911 16.6532C14.3356 13.4318 16.1721 9.9715 18.7283 7.27613C20.1176 5.81141 21.7188 4.57272 23.4261 3.72011C24.4508 3.20774 25.4393 2.87313 26.3673 2.70422C27.8709 2.42993 29.2155 2.5908 30.3025 3.13695L27.1726 1.56365Z" fill="#F0A72E"/>
</g>
<path fill-rule="evenodd" clip-rule="evenodd" d="M23.4258 3.72027C28.2668 1.3024 32.2895 2.83549 33.0073 7.10657C33.7791 6.48803 34.5937 5.95475 35.4436 5.53005C40.0577 3.22559 43.8125 5.0764 43.8274 9.66199C43.8423 14.2484 40.1116 19.837 35.4975 22.1414L11.5131 34.1198C6.89254 36.4275 3.14419 34.5734 3.12932 29.9871C3.11444 25.4007 6.83768 19.8161 11.4583 17.5084C12.3026 17.0869 13.1246 16.803 13.8908 16.6534C14.5771 11.6809 18.5774 6.14136 23.4258 3.72027Z" fill="#FFCA00"/>
<path fill-rule="evenodd" clip-rule="evenodd" d="M62.7052 5.70524C61.7651 5.23308 60.6018 5.09393 59.3019 5.33041C58.4994 5.4768 57.6457 5.76637 56.7586 6.20795C55.9087 6.63265 55.0942 7.16674 54.3224 7.78528L57.4523 9.35858C58.2241 8.74004 59.0387 8.20595 59.8896 7.78206C60.7748 7.33887 61.6294 7.05011 62.4309 6.90372C63.7318 6.66724 64.8942 6.80639 65.8343 7.27854L62.7052 5.70524Z" fill="#D43E3E"/>
<path fill-rule="evenodd" clip-rule="evenodd" d="M51.6138 3.8106C50.5277 3.26444 49.1821 3.10357 47.6795 3.37705C46.7514 3.54596 45.7648 3.88057 44.741 4.39214C43.0403 5.24153 41.4427 6.47701 40.0563 7.93931C37.4982 10.6371 35.6589 14.1038 35.2135 17.3285C34.4398 17.4813 33.6243 17.762 32.7744 18.1867C31.3052 18.9203 29.9262 19.9868 28.7294 21.2472C26.1648 23.9474 24.4352 27.5397 24.4454 30.6654C24.4529 32.9441 25.3837 34.5471 26.8827 35.3016L30.0126 36.8741C28.5127 36.1204 27.5819 34.5174 27.5745 32.2387C27.5643 29.113 29.2948 25.5207 31.8585 22.8206C33.0561 21.5593 34.4352 20.4936 35.9034 19.76C36.7552 19.3353 37.5698 19.0546 38.3434 18.9018C38.7889 15.6763 40.6282 12.2104 43.1863 9.51262C44.5727 8.05031 46.1703 6.81483 47.871 5.96464C48.8939 5.45388 49.8814 5.11927 50.8085 4.95036C52.3121 4.67688 53.6567 4.83775 54.7438 5.3839L51.6138 3.8106Z" fill="#D43E3E"/>
<path fill-rule="evenodd" clip-rule="evenodd" d="M50.2956 5.53591C55.1366 3.11885 59.1602 4.65837 59.8771 8.92946C60.6489 8.31091 61.4635 7.77763 62.3143 7.35294C66.9284 5.04848 70.6823 6.89928 70.6972 11.4849C70.7121 16.0713 66.9823 21.6599 62.3683 23.9643L38.3829 35.9427C33.7698 38.2471 30.0149 36.3963 30 31.8099C29.9852 27.2235 33.7149 21.6349 38.329 19.3305C39.1798 18.9066 39.9953 18.6259 40.7681 18.4722C41.4543 13.5006 45.4547 7.95378 50.2956 5.53591Z" fill="#FA7564"/>
<path d="M81.66 25V11.92H84.28L86.6 18.32C86.7467 18.7333 86.8867 19.16 87.02 19.6C87.1533 20.0267 87.2933 20.4533 87.44 20.88H87.52C87.6667 20.4533 87.8 20.0267 87.92 19.6C88.0533 19.16 88.1933 18.7333 88.34 18.32L90.6 11.92H93.24V25H91.1V19.02C91.1 18.7133 91.1067 18.38 91.12 18.02C91.1467 17.66 91.1733 17.3 91.2 16.94C91.2267 16.5667 91.26 16.2067 91.3 15.86C91.34 15.5 91.3733 15.1667 91.4 14.86H91.32L90.26 17.9L88.12 23.78H86.74L84.58 17.9L83.54 14.86H83.46C83.4867 15.1667 83.5133 15.5 83.54 15.86C83.58 16.2067 83.6133 16.5667 83.64 16.94C83.68 17.3 83.7067 17.66 83.72 18.02C83.7467 18.38 83.76 18.7133 83.76 19.02V25H81.66ZM98.3925 25.24C97.5259 25.24 96.8259 24.98 96.2925 24.46C95.7592 23.9267 95.4925 23.2267 95.4925 22.36C95.4925 21.84 95.5992 21.38 95.8125 20.98C96.0392 20.5667 96.3859 20.2133 96.8525 19.92C97.3325 19.6267 97.9325 19.38 98.6525 19.18C99.3859 18.98 100.259 18.8267 101.273 18.72C101.259 18.4667 101.219 18.2267 101.153 18C101.099 17.76 100.999 17.5533 100.853 17.38C100.719 17.1933 100.539 17.0533 100.313 16.96C100.086 16.8533 99.8059 16.8 99.4725 16.8C98.9925 16.8 98.5192 16.8933 98.0525 17.08C97.5992 17.2667 97.1525 17.4933 96.7125 17.76L95.8725 16.22C96.4192 15.8733 97.0325 15.5733 97.7125 15.32C98.3925 15.0667 99.1259 14.94 99.9125 14.94C101.139 14.94 102.053 15.3067 102.653 16.04C103.266 16.76 103.573 17.8067 103.573 19.18V25H101.673L101.513 23.92H101.433C100.993 24.2933 100.519 24.6067 100.013 24.86C99.5192 25.1133 98.9792 25.24 98.3925 25.24ZM99.1325 23.44C99.5325 23.44 99.8925 23.3467 100.213 23.16C100.546 22.9733 100.899 22.7067 101.273 22.36V20.16C100.606 20.24 100.046 20.3467 99.5925 20.48C99.1392 20.6133 98.7725 20.7667 98.4925 20.94C98.2125 21.1 98.0125 21.2867 97.8925 21.5C97.7725 21.7133 97.7125 21.94 97.7125 22.18C97.7125 22.62 97.8459 22.94 98.1125 23.14C98.3792 23.34 98.7192 23.44 99.1325 23.44ZM105.975 25V15.18H107.875L108.035 16.92H108.115C108.462 16.28 108.882 15.7933 109.375 15.46C109.869 15.1133 110.375 14.94 110.895 14.94C111.362 14.94 111.735 15.0067 112.015 15.14L111.615 17.14C111.442 17.0867 111.282 17.0467 111.135 17.02C110.989 16.9933 110.809 16.98 110.595 16.98C110.209 16.98 109.802 17.1333 109.375 17.44C108.949 17.7333 108.582 18.2533 108.275 19V25H105.975ZM116.546 25.24C115.973 25.24 115.486 25.1533 115.086 24.98C114.7 24.8067 114.38 24.5667 114.126 24.26C113.886 23.94 113.706 23.5667 113.586 23.14C113.48 22.7 113.426 22.2133 113.426 21.68V17H112.026V15.28L113.546 15.18L113.826 12.5H115.746V15.18H118.246V17H115.746V21.68C115.746 22.8267 116.206 23.4 117.126 23.4C117.3 23.4 117.473 23.38 117.646 23.34C117.833 23.3 118 23.2467 118.146 23.18L118.546 24.88C118.28 24.9733 117.973 25.0533 117.626 25.12C117.293 25.2 116.933 25.24 116.546 25.24ZM121.913 25.24C121.047 25.24 120.347 24.98 119.813 24.46C119.28 23.9267 119.013 23.2267 119.013 22.36C119.013 21.84 119.12 21.38 119.333 20.98C119.56 20.5667 119.907 20.2133 120.373 19.92C120.853 19.6267 121.453 19.38 122.173 19.18C122.907 18.98 123.78 18.8267 124.793 18.72C124.78 18.4667 124.74 18.2267 124.673 18C124.62 17.76 124.52 17.5533 124.373 17.38C124.24 17.1933 124.06 17.0533 123.833 16.96C123.607 16.8533 123.327 16.8 122.993 16.8C122.513 16.8 122.04 16.8933 121.573 17.08C121.12 17.2667 120.673 17.4933 120.233 17.76L119.393 16.22C119.94 15.8733 120.553 15.5733 121.233 15.32C121.913 15.0667 122.647 14.94 123.433 14.94C124.66 14.94 125.573 15.3067 126.173 16.04C126.787 16.76 127.093 17.8067 127.093 19.18V25H125.193L125.033 23.92H124.953C124.513 24.2933 124.04 24.6067 123.533 24.86C123.04 25.1133 122.5 25.24 121.913 25.24ZM122.653 23.44C123.053 23.44 123.413 23.3467 123.733 23.16C124.067 22.9733 124.42 22.7067 124.793 22.36V20.16C124.127 20.24 123.567 20.3467 123.113 20.48C122.66 20.6133 122.293 20.7667 122.013 20.94C121.733 21.1 121.533 21.2867 121.413 21.5C121.293 21.7133 121.233 21.94 121.233 22.18C121.233 22.62 121.367 22.94 121.633 23.14C121.9 23.34 122.24 23.44 122.653 23.44ZM134.596 25.24C133.836 25.24 133.15 25.1333 132.536 24.92C131.936 24.6933 131.416 24.34 130.976 23.86C130.55 23.38 130.216 22.7667 129.976 22.02C129.75 21.26 129.636 20.34 129.636 19.26V11.92H131.956V19.44C131.956 20.1467 132.016 20.7467 132.136 21.24C132.27 21.72 132.45 22.1067 132.676 22.4C132.916 22.6933 133.196 22.9067 133.516 23.04C133.836 23.16 134.196 23.22 134.596 23.22C134.996 23.22 135.363 23.16 135.696 23.04C136.03 22.9067 136.316 22.6933 136.556 22.4C136.796 22.1067 136.983 21.72 137.116 21.24C137.25 20.7467 137.316 20.1467 137.316 19.44V11.92H139.536V19.26C139.536 20.34 139.423 21.26 139.196 22.02C138.97 22.7667 138.636 23.38 138.196 23.86C137.77 24.34 137.25 24.6933 136.636 24.92C136.036 25.1333 135.356 25.24 134.596 25.24ZM142.452 25V11.92H146.572C147.292 11.92 147.959 11.9867 148.572 12.12C149.199 12.2533 149.739 12.48 150.192 12.8C150.645 13.12 150.999 13.54 151.252 14.06C151.505 14.5667 151.632 15.2 151.632 15.96C151.632 16.68 151.505 17.3067 151.252 17.84C150.999 18.3733 150.645 18.82 150.192 19.18C149.752 19.5267 149.225 19.7867 148.612 19.96C148.012 20.12 147.359 20.2 146.652 20.2H144.772V25H142.452ZM144.772 18.34H146.472C148.392 18.34 149.352 17.5467 149.352 15.96C149.352 15.1333 149.099 14.5667 148.592 14.26C148.099 13.94 147.365 13.78 146.392 13.78H144.772V18.34Z" fill="white"/>
</svg>
